<?xml version="1.0" encoding="UTF-8"?>
<svg id="Layer_1" xmlns="http://www.w3.org/2000/svg" version="1.1" viewBox="0 0 2500 2500">
  <!-- Generator: Adobe Illustrator 29.0.0, SVG Export Plug-In . SVG Version: 2.1.0 Build 186)  -->
  <defs>
    <style>
      .st0 {
        fill: #fff7f0;
      }
    </style>
  </defs>
  <path class="st0" d="M1250,0C559.1,0,0,559.1,0,1250s559.1,1250,1250,1250,1250-559.1,1250-1250S1936.4,0,1250,0ZM1250,2272.7c-568.2,0-1027.3-459.1-1027.3-1022.7S681.8,222.7,1250,222.7s1022.7,459.1,1022.7,1027.3-459.1,1022.7-1022.7,1022.7h0ZM1113.6,1590.9l-368.2-340.9,368.2-345.5v-322.7l-704.5,668.2,704.5,663.6v-322.7h0ZM1381.8,581.8v322.7l368.2,345.5-368.2,340.9v322.7l704.6-663.6-704.6-668.2h0Z"/>
</svg>