<?xml version="1.0" encoding="UTF-8"?>
<svg id="Layer_1" xmlns="http://www.w3.org/2000/svg" version="1.1" viewBox="0 0 2500 2432">
  <!-- Generator: Adobe Illustrator 29.0.0, SVG Export Plug-In . SVG Version: 2.1.0 Build 186)  -->
  <defs>
    <style>
      .st0 {
        fill: #fff7f0;
      }
    </style>
  </defs>
  <path class="st0" d="M1245.2,0C557.6,0,0,557.5,0,1245.2s356.8,1016.9,851.5,1181.5c62.2,11.5,85.1-27,85.1-59.9s-1.2-127.8-1.7-231.8c-346.4,75.3-419.5-146.9-419.5-146.9-56.6-143.9-138.3-182.2-138.3-182.2-113-77.3,8.5-75.7,8.5-75.7,125,8.8,190.9,128.3,190.9,128.3,111.1,190.4,291.3,135.3,362.3,103.5,11.2-80.5,43.4-135.4,79.1-166.5-276.6-31.5-567.3-138.3-567.3-615.4s48.6-247,128.3-334.2c-12.9-31.4-55.5-158,12.1-329.5,0,0,104.6-33.5,342.5,127.6,99.3-27.6,205.8-41.4,311.7-41.9,105.8.5,212.4,14.3,311.9,41.9,237.7-161.1,342.1-127.6,342.1-127.6,67.8,171.5,25.1,298.2,12.2,329.5,79.8,87.2,128.1,198.3,128.1,334.2,0,478.2-291.3,583.6-568.6,614.4,44.7,38.6,84.5,114.4,84.5,230.6,0,166.6-1.4,300.7-1.4,341.7s22.4,72,85.5,59.7c494.5-164.8,850.8-631.4,850.8-1181.4S1932.8,0,1245.2,0"/>
  <path class="st0" d="M466.4,1773.8c-2.7,6.2-12.5,8-21.3,3.8-9-4.1-14.1-12.5-11.2-18.7,2.7-6.4,12.4-8.1,21.4-3.9,9.1,4.1,14.2,12.6,11.1,18.8M527.6,1828.4c-5.9,5.5-17.5,2.9-25.4-5.8-8.1-8.7-9.7-20.3-3.6-25.9,6.1-5.5,17.4-2.9,25.5,5.8,8.1,8.8,9.7,20.3,3.5,25.9M569.6,1898.3c-7.6,5.3-20.1.3-27.8-10.7-7.6-11.1-7.6-24.3.2-29.7,7.7-5.3,20-.5,27.8,10.4,7.6,11.3,7.6,24.5-.2,30M640.7,1979.3c-6.8,7.5-21.4,5.5-32-4.8-10.9-10-13.9-24.3-7.1-31.8,6.9-7.5,21.5-5.4,32.2,4.8,10.8,10,14.1,24.4,6.8,31.8M732.5,2006.7c-3,9.7-17,14.2-31.1,10-14.1-4.3-23.3-15.7-20.5-25.5,2.9-9.8,17-14.4,31.2-10,14.1,4.2,23.3,15.6,20.4,25.5M837.1,2018.3c.4,10.3-11.6,18.8-26.4,19-14.9.3-26.9-8-27.1-18.1,0-10.4,11.7-18.8,26.6-19.1,14.8-.3,26.9,8,26.9,18.2M939.7,2014.3c1.8,10-8.5,20.3-23.2,23-14.5,2.6-27.8-3.5-29.7-13.5-1.8-10.3,8.7-20.6,23.1-23.2,14.7-2.6,27.9,3.5,29.8,13.7"/>
</svg>