<?xml version="1.0" encoding="UTF-8"?>
<svg id="Layer_1" xmlns="http://www.w3.org/2000/svg" version="1.1" viewBox="0 0 2490 2500">
  <!-- Generator: Adobe Illustrator 29.0.0, SVG Export Plug-In . SVG Version: 2.1.0 Build 186)  -->
  <defs>
    <style>
      .st0 {
        fill: #fff7f0;
      }
    </style>
  </defs>
  <path class="st0" d="M2306,5H184C82.4,5,0,84.9,0,183.4v2133.3c0,98.5,82.4,178.3,184,178.3h2121.9c101.6,0,184-79.9,184-178.3V183.4c0-98.5-82.4-178.4-184-178.4ZM384.1,2088.8V967.8h372.6v1121h-372.6ZM570.5,814.8h0s-2.4,0-2.4,0c-125.1,0-205.9-86.1-205.9-193.7s83.3-193.7,210.8-193.7,205.9,83.7,208.3,193.7c0,107.6-80.9,193.7-210.8,193.7ZM2100.3,2088.8h-372.6v-599.6c0-150.7-54-253.5-188.7-253.5s-164.3,69.3-191.2,136.3c-9.8,23.9-12.3,57.4-12.3,90.9v626h-372.6s4.9-1015.8,0-1121h372.6v158.7c49.5-76.4,138.2-185,335.8-185s428.9,160.2,428.9,504.5v642.8Z"/>
</svg>